<?xml version="1.0" encoding="utf-8"?>
<!-- Generator: Adobe Illustrator 16.0.0, SVG Export Plug-In . SVG Version: 6.00 Build 0)  -->
<!DOCTYPE svg PUBLIC "-//W3C//DTD SVG 1.1//EN" "http://www.w3.org/Graphics/SVG/1.1/DTD/svg11.dtd">
<svg version="1.1" id="Calque_1" xmlns="http://www.w3.org/2000/svg" xmlns:xlink="http://www.w3.org/1999/xlink" x="0px" y="0px"
	 width="624.941px" height="300.256px" viewBox="0 0 624.941 300.256" enable-background="new 0 0 624.941 300.256"
	 xml:space="preserve">
<g>
	<path fill-rule="evenodd" clip-rule="evenodd" d="M617.575,180.218c-38.41,0.431-57.039-1.654-58.215-1.833
		c-15.453-1.113-11.904-1.077-24.802-4.646c-0.025,0.009-0.05,0.019-0.076,0.027c-1.201,0.414-1.713-1.484-0.522-1.894
		c6.073-2.091,11.304-5.711,16.675-9.136c4.367-2.785,8.747-5.578,12.566-9.077c0-0.029,0-0.059,0-0.089
		c0.008-0.656-0.179-1.23-0.59-1.714c-2.024,0.779-3.941,1.843-5.948,2.694c-2.901,1.23-5.888,2.335-8.858,3.39
		c-5.604,1.99-11.27,3.081-17.055,4.17c-0.502,0.147-1.01,0.243-1.522,0.287c-0.28,0.053-0.56,0.105-0.84,0.159
		c-7.096,1.348-14.179,2.945-21.245,4.45c-3.455,0.736-6.854,1.439-10.343,1.988c-2.753,0.434-5.627,1.899-8.414,1.106
		c-0.027-0.008-0.049-0.02-0.075-0.03c-4.659,0.1-15.238-0.089-19.242,0.098c-4.06-0.197-18.642-0.897-20.029-1.528
		c-0.756-0.344-0.86-1.158-0.213-1.681c1.371-1.109,2.798-2.178,4.572-2.528c5.275-1.039,10.206-3.081,15.144-5.112
		c0.925-0.381,1.89-0.669,2.836-1c3.199-1.121,6.41-2.209,9.59-3.381c0.995-0.366,16.83-6.297,17.712-8.708
		c-2.65-2.058-10.556-1.813-12.422-2.844c-0.253-0.003-0.254-0.396,0-0.393c0.013,0,0.027,0.001,0.04,0.002
		c0.03-0.05,0.081-0.091,0.156-0.1c0.332-0.042,3.444-0.887,3.667-0.947c10.904-2.918,22.323-2.912,33.499-2.016
		c6.37,0.51,12.601,1.389,19.011,1.415c9.186,0.038,36.381,1.352,53.798-3.494c1.909-1.392-13.771-9.021-14.693-9.364
		c-6.231-2.316-12.546-4.419-18.917-6.314c-8.325-2.477-16.189-4.157-24.715-5.605c-5.633-0.958-11.242-2.095-16.752-3.62
		c-0.913-0.253-1.368-0.838-1.535-1.699c-0.137-0.71,0.453-1.212,1.154-1.013c1.779-2.909,5.297-4.356,8.484-5.135
		c1.833-0.447,3.698-0.753,5.579-0.959c5.393-1.863,11.042-3.031,16.685-3.63c2.331-0.248,4.681-0.406,7.035-0.463
		c1.235-0.327,2.473-0.628,3.716-0.895c-5.669-3.802-16.017-4.254-21.9-5.503c-9.513-2.019-18.959-1.835-28.61-2.369
		c-9.504-0.526-18.695-2.893-28.245-3.227c-6.623-0.231-13.244,0.088-19.861,0.337c-5.375,0.203-12.524,1.511-17.308-1.638
		c-0.209-0.138-0.432-0.263-0.617-0.429c-0.58-0.521-0.472-1.423,0.192-1.792c0.027-0.113,0.078-0.229,0.165-0.346
		c1.938-2.611,6.557-1.816,9.361-2.416c2.811-0.601,5.564-1.759,8.426-2.076c1.272-0.141,1.989-0.877,1.912-2.251
		c-20.304-11.925-57.295-2.592-79.856-2.275c-10.914,0.154-21.716,1.75-32.504,3.262c-8.909,1.249-22.208,5.193-30.776,2.42
		c0.814-8.033,20.04-25.598,18.044-31.777c-2.43-7.525-27.41,2.174-33.066,3.962c-11.871,3.754-23.626,7.9-35.302,12.222
		c-13.751,5.09-26.819,11.786-40.011,18.137c-10.386,5-21.687,7.821-32.005,12.981c-4.258,2.129-8.044,5.459-12.494,7.078
		c-4.791,1.743-10.097,1.587-14.797,3.682c-5.713,2.546-11.157,5.814-16.964,8.138c-10.628,4.254-21.958,9.936-31.55,16.196
		c-11.04,7.206-21.932,14.701-32.077,23.135c-7.631,7.698-15.708,14.414-25.464,28.534c0.081-0.33,0.67-6.961,1.867-8.816
		c1.473-4.911,32.903-47.734,86.509-74.687C214.686,51.158,319.465-0.367,318.368,0.002c-11.979,4.02-64.919,19.596-138.086,67.549
		c-5.225,3.146-10.235,7.034-15.933,9.288c-2.322,0.918-11.952,8.158-13.221,6.943c-0.659-0.631-0.575-1.145-0.15-1.993
		c5.301-10.591,56.114-42.534,54.279-43.331c7.072-10.738-94.152,49.224-109.387,76.664c-2.668-3.742,8.812-20.353,17.718-33.449
		c7.072-17.811-21.216,8.644-74.58,75.565C25.012,173.734-7.031,203.381,1.388,228.35c0.14,0.415,0.262,0.845,0.469,1.226
		c0.563,1.042,1.334,1.386,2.509,1.175c0.123-0.022,0.248-0.049,0.364-0.095c1.575-0.624,3.169-0.565,4.819-0.295
		c2.167,0.355,4.362,0.527,6.537,0.837c1.49,0.212,2.959,0.565,4.448,0.781c1.738,0.252,3.488,0.417,5.232,0.632
		c125.079,15.316,157.84,40.52,153.954,33.842c-1.96-3.359-23.572-18.072-34.581-21.1c-17.278-6.27-15.803-8.937-6.892-9.205
		c4.717-0.142,9.754,1.185,14.264,2.429c93.604,21.59,59.425,9.411,196.144,61.679c0.011-4.337-38.374-23.003-42.823-25.16
		c-14.195-6.882-36.93-18.465-156.576-52.615C266.544,237.773,282.1,257.37,287.498,255.06
		c-35.097-30.12-119.56-46.102-144.633-52.858c-20.243-1.489-50.814-5.755-69.614-11.573c0.125,0.005,10.706-1.67,16.495-3.503
		c5.333-2.033,11.301-3.884,12.493-4.199c10.145-2.677,20.545-4.535,31.018-5.253c9.169-0.629,17.995-2.228,27.097-2.051
		c10.621,0.206,18.558-0.247,28.553,3.933c10.457,4.373,19.958,10.727,30.385,15.169c12.377,5.273,23.175,11.391,36.121,15.017
		c24.444,6.844,56.508,14.479,117.701,18.013c8.358,0.02,16.714-0.188,25.072-0.193c1.738-0.001,1.374-1.8,3.113-1.769
		c0.079-4.107-6.881-12.4-6.875-12.572c-0.703-0.647,5.512,0.301,6.547,0.624c42.104,0.358,61.232-2.396,72.785-3.178
		c1.69-0.115,12.231,1.679,16.07,1.702c1.645,0.01,22.452-0.285,22.523-0.293c33.133-2.784,48.855-6.017,50.518-6.615
		c12.375-1.277,42.037-10.607,57.359-21.51c2.196-1.889,2.941-2.321,4.714-4.616C620.325,180.021,622.11,180.531,617.575,180.218z
		 M581.365,135.889c-3.775,2.259-43.691-1.572-48.192-2.357c-9.392,0.238-14.143-2.619-63.514,2.292
		c-2.311,0.365-12.533-1.527-14.842-1.812c-2.684-0.33-10.462,0.348-16.784-3.296c0.749-3.524,37.716-14.536,52.055-15.715
		C492.678,113.603,576.938,128.819,581.365,135.889z M435.888,97.75c9.745,0.294,19.482-0.057,29.232-0.07
		c4.629-0.006,9.333-0.408,13.952-0.064c8.113,0.602,16.232,1.174,24.354,1.64c2.997,0.172,5.805,0.894,8.757,1.378
		c0.844,0.139,5.431,0.399,4.325,1.697c-0.632,0.741-2.637,0.971-3.521,1.21c-1.184,0.319-19.646,3.253-25.402,4.61
		c-9.046,2.134-17.948,4.899-26.916,7.341c-6.32,1.721-11.964,3.672-18.147,5.549c-3.719,1.128-7.585,2.264-11.249,3.558
		c-11.813,4.172-24.58,2.484-36.568,0.05c-4.125-0.838-31.717-4.144-31.368-9.018c0.162-2.252,5.085-3.682,6.719-4.487
		c4.435-2.186,8.729-4.789,13.419-6.405c8.38-2.888,16.897-4.975,25.665-4.988c5.68-0.009,11.291-0.926,16.952-1.522
		C429.334,97.887,432.592,97.651,435.888,97.75z M324.647,91.301c5.601-1.327,11.267-2.363,16.956-3.173
		c14.16-2.015,28.44-2.943,42.681-4.191c5.471-0.479,10.922-0.983,16.408-1.263c3.752-0.191,9.813-1.807,13.113,0.415
		c-0.506-0.34-6.919,2.895-7.861,3.239c-3.271,1.195-6.612,2.213-10.038,2.86c-17.181,3.245-35.884,11.276-49.035,22.946
		c-0.791,0.702-1.692,1.064-2.764,1.028c-7.846-0.266-15.791-2.648-23.826-2.922c-4.252-0.146-21.939,0.478-17.557-6.819
		c1.225-2.04,3.503-3.767,5.279-5.324c2.955-2.59,6.14-3.979,9.905-5.047C320.144,92.418,322.391,91.836,324.647,91.301z
		 M183.103,125.463c-0.42,6.52-1.436,13.396-1.505,15.032c-0.187,4.449-1.029,8.86-1.179,13.3c-0.107,3.151-0.009,6.714-1.037,9.731
		c-1.773,5.207-4.046,3.145-8.697,2.736c-2.218-0.195-4.046,0.426-6.243,0.5c-4.601,0.157-7.835,0.144-12.381,1.104
		c-8.352,1.765-16.892,2.193-25.336,3.607c-4.762,0.797-9.325,1.527-14.012,2.624c-4.186,0.979-8.367,2.663-12.517,3.449
		c-8.837,1.674-18.256,5.393-26.939,6.403c-0.186-2.955,2.892-7.396,4.951-9.519c3.027-3.122,6.366-5.881,9.59-8.791
		c5.645-5.092,11.119-11.277,17.293-15.673c12.945-9.217,26.447-16.773,40.407-24.389c10.862-5.926,22.725-9.416,34.542-12.865
		c0.24-0.07,0.488-0.125,0.735-0.148C183.336,112.325,183.539,118.703,183.103,125.463z M386.679,220.296
		c-3.388,2.06-18.073-0.189-20.464-0.34c-6.479-0.411-12.689-2.487-19.152-2.75c-14.074-0.575-27.585-1.569-41.521-3.584
		c-25.146-3.636-49.663-10.492-72.779-21.224c-7.638-3.546-15.428-6.747-23.131-10.146c-6.859-3.027-14.178-8.34-21.445-10.062
		c-3.847-0.912,2.505-16.439,3.021-19.252c0.861-4.706,0.686-9.682,1.141-14.273c0.218-2.199,0.18-4.415,0.5-6.516
		c0.109-0.713,1.226-1.14,1.355-2.003c0.123-0.825-0.911-1.992-0.981-2.972c-0.354-4.952-2.017-11.555,0.727-16.095
		c2.768-4.582,9.166-6.075,13.201-9.219c3.493-2.721,8.875-4.074,12.981-6.065c1.831-0.888,3.656-1.849,5.413-2.881
		c2.042-1.2,3.118-1.346,5.179-2.174c4.36-1.75,8.142-4.201,12.115-6.751c2.139-1.372,4.306-2.175,6.695-3.063
		c2.53-0.94,3.786-2.683,5.781-3.684c3.111-1.561,6.909-2.386,10.213-3.526c8.599-2.966,16.538-6.919,24.958-9.549
		c5.957-1.86,11.697-4.332,17.609-6.319c5.676-1.908,11.495-2.383,17.185-3.934c2.833-0.769,3.063,1.808,2.428,3.606
		c-0.725,2.05-3.693,3.176-5.26,4.459c-2.297,1.882-2.08,3.178-3.413,5.208c-3.248,4.946-7.571,9.662-11.21,14.425
		c-3.564,4.664-6.645,9.758-9.84,14.557c-1.188,1.786-2.311,4.233-3.664,5.833c-2.406,2.845-9.65,6.909-6.203,11.327
		c3.061,3.921,13.156,2.436,17.588,3.392c6.324,1.363,12.789,2.119,19.132,3.459c12.151,2.568,24.579,4.029,36.853,5.883
		c24.746,3.738,48.997,9.688,73.918,12.992c6.939,0.919,13.321,1.763,20.222,2.469c3.124,0.32,5.447,1.766,8.439,2.262
		c3.041,0.504,11.798,0.229,13.551,3.385c-8.418,3.129-16.272,6.149-25.274,7.56c-8.588,1.346-15.54,6.018-23.886,7.793
		c-4.258,0.906-8.261,2.578-12.395,3.8c-3.756,1.11-6.986,3.274-11.001,4.059c-8.651,1.69-17.497,5.147-25.804,8.409
		c-4.931,1.936-9.664,4.276-14.43,6.552c-3.181,1.52-11.369,4.912-10.852,9.321c0.338,2.89,5.059,4.725,7.141,6.03
		c4.058,2.544,7.553,6.297,11.611,8.672c3.34,1.955,6.843,3.649,10.017,5.885c0.958,0.674,4.148,2.434,4.403,3.755
		C387.458,219.554,387.204,219.977,386.679,220.296z M419.111,208.186c-8.254,0.022-32.009-2.334-36.472-4.6
		c-3.788-1.923-8.793-5.279-11.659-8.432c-0.418-0.46-0.277-1.097,0.215-1.501c0.191-0.157,0.408-0.295,0.635-0.395
		c7.96-3.508,6.945-3.677,13.755-5.903c4.357,0.682,15.252,7.305,19.634,7.822c8.288,0.978,16.95,1.839,25.247,2.206
		c7.943,0.351,16.445-0.203,24.396-0.401c4-0.099,7.847-1.242,11.877-1.51c1.356-0.09-22.616,2.752,6.079,0.342
		c0.313,0.282,0.512,0.543,0.618,0.785C474.052,198.048,458.921,206.736,419.111,208.186z M402.623,183.03
		c0.232,0.136,17.697-6.241,18.713-6.545c49.764,3.929,39.837,1.919,92.12-3.54C462.367,196.947,405.333,184.525,402.623,183.03z
		 M529.743,203.061c-3.002,0.224-14.1,0.405-14.514,0.412c-5.877,0.098-23.984-0.576-24.094-0.664
		c-0.088,0.028,21.107-18.127,27.108-18.728c13.096,2.095,56.049,5.238,88.527,2.246
		C589.379,201.411,532.705,202.84,529.743,203.061z"/>
	<path fill-rule="evenodd" clip-rule="evenodd" fill="#FFFFFF" d="M404.298,86.672c-0.102,0.067-0.228,0.116-0.381,0.138
		c-0.063,0.009-0.124,0.021-0.186,0.03c-0.372,0.106-0.744,0.207-1.117,0.307c0.761,0.167,1.598,0.113,2.281-0.336
		c0.321-0.212,0.639-0.428,0.955-0.647C405.336,86.347,404.818,86.515,404.298,86.672z"/>
	<path fill-rule="evenodd" clip-rule="evenodd" fill="#FFFFFF" d="M389.631,90.887c0.559-0.083,1.091-0.261,1.614-0.488
		c-0.129,0.034-0.263,0.065-0.393,0.098C390.445,90.625,390.038,90.756,389.631,90.887z"/>
	<path fill-rule="evenodd" clip-rule="evenodd" fill="#FFFFFF" d="M413.953,82.572c-0.109-0.182-0.242-0.313-0.394-0.405
		c0.39,0.482,0.228,1.394-0.479,1.616c-0.072,0.078-0.155,0.146-0.254,0.198c0.172,0.015,0.343,0.019,0.51,0.003
		C414.001,83.921,414.304,83.157,413.953,82.572z"/>
	<path fill-rule="evenodd" clip-rule="evenodd" d="M238.099,107.902c2.808,2.029,14.214-0.999,17.917-0.819
		c6.317,0.305,12.992,1.758,17.787,6.137c7.954,7.263,2.684,16.464-4.949,21.279c-12.363,7.798-49.417,18.757-57.826,0.575
		c-2.157-4.664-0.935-9.778,2.216-13.656c2.808-3.453,8.159-4.256,11.719-6.697c5.969-4.092,1.66-7.983,3.639-13.769
		c1.204-3.518,3.738-6.171,6.834-8.124c2.889-1.821,6.237-2.807,9.238-4.424c2.945-1.588,5.688-4.233,8.877-5.295
		c6.721-2.238,10.376,5.137,6.101,10.327c-2.123,2.578-5.719,3.239-8.615,4.548c-4.285,1.938-7.886,5.208-11.506,8.151
		C238.969,106.592,238.297,107.006,238.099,107.902z M257.623,114.745c-2.355-0.079-7.55,1.544-7.36,4.533
		c0.044,0.688,0.05,1.377,0.074,2.066c0.033,0.918-0.262,1.744-0.828,2.441c-0.43,0.529-0.954,0.984-1.452,1.455
		c-0.363,0.343-0.783,0.628-1.12,0.993c-0.362,0.392-0.231,1.042,0.246,1.287c0.269,0.138,0.59,0.261,0.883,0.25
		c0.493-0.019,0.994-0.108,1.47-0.243c1.506-0.427,3.003-0.888,4.503-1.337c1.266-0.379,2.545-0.678,3.881-0.605
		c0.91,0.05,1.727-0.17,2.473-0.713c1.04-0.757,2.227-1.11,3.504-1.229c0.935-0.086,1.871-0.204,2.792-0.387
		c1.14-0.226,1.57-0.804,1.611-1.972c0.039-1.117-0.271-2.105-1.067-2.913c-0.528-0.536-1.072-1.056-1.59-1.6
		c-0.492-0.517-1.087-0.841-1.764-1.026C261.938,115.214,259.976,114.824,257.623,114.745z M236.216,126.618
		c0-0.188,0.028-0.381-0.004-0.563c-0.325-1.779-0.807-3.53-0.816-5.365c-0.003-0.619-0.5-0.933-1.181-0.971
		c-0.905-0.049-1.813,0.1-2.472,0.705c-0.938,0.862-1.997,1.115-3.224,1.261c-3.548,0.423-6.213,2.186-7.666,5.551
		c-0.632,1.463-0.335,2.348,0.993,3.185c0.692,0.436,1.399,0.47,2.155,0.199c1.796-0.644,3.684-0.673,5.555-0.791
		c0.875-0.055,1.758,0.002,2.627-0.088c0.74-0.077,1.492-0.214,2.191-0.46C235.835,128.766,236.234,128.135,236.216,126.618z"/>
</g>
</svg>
