<?xml version="1.0" encoding="utf-8"?>
<!-- Generator: Adobe Illustrator 16.0.0, SVG Export Plug-In . SVG Version: 6.00 Build 0)  -->
<!DOCTYPE svg PUBLIC "-//W3C//DTD SVG 1.1//EN" "http://www.w3.org/Graphics/SVG/1.1/DTD/svg11.dtd">
<svg version="1.1" id="Calque_1" xmlns="http://www.w3.org/2000/svg" xmlns:xlink="http://www.w3.org/1999/xlink" x="0px" y="0px"
	 width="1700.79px" height="1700.79px" viewBox="0 0 1700.79 1700.79" enable-background="new 0 0 1700.79 1700.79"
	 xml:space="preserve">
<g>
	<g>
		<path fill-rule="evenodd" clip-rule="evenodd" fill="#FFFFFF" d="M627.75,747.54c149,0,298,0,447,0c0,68.75,0,137.5,0,206.25
			c-149,0-298,0-447,0C627.75,885.04,627.75,816.29,627.75,747.54z M659.172,832.031c-0.18-0.101-0.359-0.203-0.539-0.304
			c-2.842,4.35-5.81,8.625-8.503,13.066c-6.551,10.802-12.588,21.853-15.246,34.388c-2.546,12.009,0.615,19.019,11.504,24.714
			c4.076,2.132,8.341,3.989,12.681,5.513c19.025,6.679,38.76,10.39,58.591,13.641c5.724,0.938,11.475,1.704,17.214,2.549
			c-0.33-0.842-0.775-0.983-1.229-1.094c-10.301-2.498-20.692-4.685-30.865-7.623c-4.948-1.43-9.563-4.127-14.162-6.563
			c-1.042-0.552-1.937-2.438-1.864-3.646c0.046-0.755,1.961-1.594,3.17-2.023c1.143-0.406,2.464-0.486,3.696-0.438
			c7.985,0.31,16.007,0.308,23.943,1.123c28.444,2.926,56.854,6.17,85.287,9.201c4.089,0.436,8.232,0.421,12.353,0.502
			c4.069,0.08,8.142,0.018,12.212,0.018c-25.49-4.267-50.918-7.979-76.231-12.359c-20.528-3.552-40.943-7.886-60.371-15.69
			c-5.263-2.115-10.341-5.007-14.975-8.29c-5.015-3.552-5.449-7.77-1.838-12.621c2.821-3.789,5.883-7.482,9.304-10.729
			c20.492-19.447,43.59-35.451,67.686-49.995c14.06-8.486,28.625-16.134,42.964-24.159c-11.753,4.863-23.569,9.748-35.015,15.386
			c-11.519,5.674-22.92,11.679-33.908,18.311c-11.1,6.7-21.917,13.958-32.325,21.691c-10.185,7.567-19.695,16.041-30.068,24.583
			c1.541-2.424,2.501-4.503,3.964-6.13c4.418-4.914,8.521-10.301,13.659-14.346c20.895-16.448,42.13-32.463,63.239-48.639
			c1.196-0.917,2.384-1.844,3.577-2.765c-0.197-0.258-0.394-0.515-0.591-0.773c-6.341,4.313-12.693,8.609-19.021,12.941
			c-21.33,14.604-42.628,29.255-64.02,43.769c-1.588,1.078-3.811,1.22-5.739,1.797c-0.278-2.021-0.986-4.099-0.735-6.053
			C657.363,837.955,658.406,835.01,659.172,832.031z M898.736,892.104c9.306-1.295,18.184-2.481,27.046-3.783
			c5.399-0.792,10.751-2.32,16.163-2.529c9.352-0.362,18.745,0.373,28.101,0.044c11.591-0.408,23.251-0.774,34.716-2.355
			c14.344-1.979,27.367-8.362,40.322-14.55c6.357-3.035,12.556-6.405,18.826-9.625c-29.059,3.902-57.766,9.104-87.917,7.161
			c4.522-3.892,8.209-7.063,11.895-10.234c-0.177-0.307-0.354-0.612-0.532-0.917c-22.32,6.737-45.018,7.104-67.991,4.094
			c14.281-5.104,28.563-10.21,43.807-15.659c-5.418-1.061-9.855-1.931-14.294-2.801c16.54-2.354,33.007-1.186,49.445,0.328
			c16.454,1.515,32.88,3.334,49.317,5.021c-25.478-8.982-50.713-18.714-77.5-23.887c14.016-1.828,28.031-3.655,42.047-5.483
			c-31.709-6.364-63.154-14.994-96.146-9.544c0.016-0.434,0.03-0.867,0.046-1.301c8.837-2.535,17.674-5.069,26.512-7.604
			c-17.358-2.334-34.568-1.61-51.771-0.563c-17.229,1.049-34.237,3.513-51.712,9.238c7.848-10.545,14.963-20.105,22.504-30.236
			c-1.624,0.314-2.48,0.392-3.279,0.648c-14.835,4.761-29.826,9.099-44.452,14.436c-17.609,6.425-34.546,14.428-49.988,25.239
			c-1.162,0.813-2.433,2.355-2.539,3.65c-0.912,11.198-1.474,22.427-2.365,33.627c-0.244,3.068,0.658,5.083,3.017,7.027
			c16.176,13.334,34.764,21.817,55.206,25.312c23.471,4.013,47.177,6.673,70.803,9.745c5.703,0.742,11.497,0.79,17.25,1.158
			c0.059-0.276,0.117-0.552,0.176-0.827C903.268,895.365,901.09,893.798,898.736,892.104z M760.45,818.7
			c-7.826-0.445-17.765,2.125-27.399,6.873c-16.313,8.038-30.171,19.395-43.069,32.004c-4.817,4.71-9.305,9.757-13.942,14.65
			c26.224-11.207,53.451-13.656,81.754-12.7C758.679,845.915,759.557,832.428,760.45,818.7z"/>
		<path fill-rule="evenodd" clip-rule="evenodd" d="M659.172,832.031c-0.766,2.979-1.81,5.924-2.199,8.952
			c-0.251,1.954,0.457,4.031,0.735,6.053c1.928-0.577,4.151-0.72,5.739-1.797c21.391-14.514,42.69-29.165,64.02-43.769
			c6.328-4.332,12.68-8.628,19.021-12.941c0.197,0.258,0.394,0.515,0.591,0.773c-1.192,0.921-2.38,1.848-3.577,2.765
			c-21.109,16.176-42.344,32.19-63.239,48.639c-5.138,4.044-9.241,9.432-13.659,14.346c-1.463,1.627-2.423,3.706-3.964,6.13
			c10.373-8.542,19.884-17.016,30.068-24.583c10.407-7.733,21.225-14.991,32.325-21.691c10.987-6.632,22.389-12.637,33.908-18.311
			c11.445-5.638,23.262-10.522,35.015-15.386c-14.338,8.025-28.904,15.673-42.964,24.159
			c-24.096,14.544-47.194,30.548-67.686,49.995c-3.42,3.246-6.483,6.939-9.304,10.729c-3.611,4.852-3.177,9.069,1.838,12.621
			c4.634,3.283,9.711,6.175,14.975,8.29c19.427,7.805,39.843,12.139,60.371,15.69c25.313,4.38,50.741,8.093,76.231,12.359
			c-4.07,0-8.143,0.063-12.212-0.018c-4.121-0.081-8.264-0.066-12.353-0.502c-28.433-3.031-56.843-6.275-85.287-9.201
			c-7.936-0.815-15.958-0.813-23.943-1.123c-1.232-0.048-2.553,0.032-3.696,0.438c-1.209,0.43-3.124,1.269-3.17,2.023
			c-0.073,1.209,0.822,3.095,1.864,3.646c4.599,2.436,9.213,5.133,14.162,6.563c10.173,2.938,20.564,5.125,30.865,7.623
			c0.454,0.11,0.899,0.252,1.229,1.094c-5.739-0.845-11.49-1.611-17.214-2.549c-19.831-3.251-39.566-6.962-58.591-13.641
			c-4.34-1.523-8.605-3.381-12.681-5.513c-10.889-5.695-14.051-12.705-11.504-24.714c2.658-12.535,8.695-23.586,15.246-34.388
			c2.693-4.441,5.661-8.716,8.503-13.066C658.813,831.828,658.993,831.93,659.172,832.031z"/>
		<path fill-rule="evenodd" clip-rule="evenodd" d="M898.736,892.104c2.354,1.693,4.531,3.261,6.71,4.829
			c-0.059,0.275-0.117,0.551-0.176,0.827c-5.753-0.368-11.547-0.416-17.25-1.158c-23.626-3.072-47.332-5.732-70.803-9.745
			c-20.441-3.494-39.029-11.978-55.206-25.312c-2.358-1.944-3.261-3.959-3.017-7.027c0.891-11.2,1.453-22.429,2.365-33.627
			c0.105-1.294,1.377-2.837,2.539-3.65c15.442-10.811,32.379-18.814,49.988-25.239c14.626-5.337,29.617-9.675,44.452-14.436
			c0.799-0.257,1.655-0.334,3.279-0.648c-7.541,10.131-14.656,19.691-22.504,30.236c17.475-5.725,34.482-8.189,51.712-9.238
			c17.203-1.048,34.413-1.771,51.771,0.563c-8.838,2.535-17.675,5.069-26.512,7.604c-0.016,0.434-0.03,0.867-0.046,1.301
			c32.992-5.449,64.438,3.181,96.146,9.544c-14.016,1.828-28.031,3.655-42.047,5.483c26.787,5.172,52.022,14.905,77.5,23.887
			c-16.438-1.687-32.863-3.506-49.317-5.021c-16.438-1.513-32.905-2.682-49.445-0.328c4.438,0.87,8.876,1.74,14.294,2.801
			c-15.244,5.449-29.525,10.555-43.807,15.659c22.974,3.01,45.671,2.644,67.991-4.094c0.178,0.305,0.355,0.61,0.532,0.917
			c-3.686,3.171-7.372,6.343-11.895,10.234c30.151,1.942,58.858-3.259,87.917-7.161c-6.271,3.22-12.469,6.59-18.826,9.625
			c-12.955,6.188-25.979,12.571-40.322,14.55c-11.465,1.581-23.125,1.947-34.716,2.355c-9.355,0.329-18.749-0.406-28.101-0.044
			c-5.412,0.209-10.764,1.737-16.163,2.529C916.92,889.623,908.042,890.81,898.736,892.104z M897.441,895.594
			c0.058-0.367,0.114-0.735,0.172-1.104c-9.271-6.44-18.54-12.881-28.508-19.806c28.724-10.175,56.436-19.989,84.147-29.804
			c-0.031-0.218-0.063-0.436-0.094-0.653c-42.263-7.728-84.525-15.455-127.393-23.293c10.175-13.559,19.956-26.593,30.245-40.305
			c-2.03,0.521-3.238,0.748-4.392,1.137c-13.703,4.617-27.542,8.876-41.057,13.993c-15.538,5.884-30.466,13.171-44.229,22.603
			c-1.253,0.857-2.616,2.521-2.736,3.913c-0.92,10.698-1.474,21.427-2.319,32.132c-0.19,2.405,0.56,3.934,2.352,5.429
			c9.494,7.923,20.167,13.747,31.615,18.3c14.624,5.814,29.973,8.586,45.438,10.656C859.567,891.319,878.52,893.349,897.441,895.594
			z M997.132,815.825c-1.637-0.331-3.562-0.779-5.508-1.103c-18.556-3.088-36.908-7.85-55.987-6.565
			c-15.995,1.078-32.244,0.455-47.26,7.624c-6.551,3.127-13.159,6.135-19.741,9.197c0.128,0.422,0.257,0.844,0.385,1.265
			c12.42,2.279,24.827,4.629,37.269,6.785c2.844,0.493,5.984,1.02,8.674,0.321c7.792-2.024,15.285-5.361,23.146-6.925
			C957.76,822.512,977.549,819.294,997.132,815.825z M929.015,799.774c-0.02-0.2-0.038-0.399-0.058-0.599
			c-1.191,0-2.384-0.028-3.574,0.004c-11.346,0.313-22.702,0.416-34.033,1.006c-17.352,0.905-34.413,3.596-51.032,8.928
			c-5.267,1.69-6.743,6.283-9.922,10.094c11.295,2.047,21.914,3.998,32.55,5.856c0.967,0.169,2.302,0.101,3.02-0.444
			c10.708-8.146,23.34-12.061,35.801-16.288C910.779,805.275,919.927,802.613,929.015,799.774z M945.888,883.479
			c0.026,0.003,0.703,0.165,1.379,0.159c10.744-0.072,21.488-0.117,32.231-0.269c14.418-0.203,28.718-1.328,42.239-6.912
			c9.74-4.021,19.382-8.282,29.067-12.437c-0.115-0.293-0.23-0.586-0.345-0.88c-7.769,1.093-15.522,2.306-23.308,3.255
			c-17.491,2.132-34.999,4.009-52.657,1.997c-1.031-0.117-2.277,0.104-3.177,0.608C962.715,873.828,954.164,878.75,945.888,883.479z
			 M875.151,875.789c5.627,3.917,11.139,7.947,16.873,11.629c1.737,1.115,4.103,1.814,6.164,1.776
			c16.855-0.305,33.154-3.604,48.807-9.876c4.227-1.694,8.272-3.843,13.315-6.213c-1.47-0.23-1.724-0.335-1.955-0.298
			c-19.909,3.129-39.799,2.049-59.602-0.747C890.5,870.895,882.763,871.147,875.151,875.789z M1025.318,841.423
			c0.021-0.332,0.043-0.664,0.064-0.996c-11.895-3.65-23.73-7.502-35.696-10.902c-15.495-4.403-31.089-6.933-47.056-1.79
			c-7.934,2.557-16.097,4.397-24.156,6.562c0.058,0.41,0.115,0.821,0.173,1.231c9.339,0.524,18.081,4.51,27.921,2.842
			c16.247-2.753,32.646-0.826,48.957,0.345C1005.471,839.429,1015.389,840.508,1025.318,841.423z M979.082,860.271
			c-20.233,4.113-40.502,4.018-60.851,2.052c-5.495-0.531-18.91,3.373-23.924,6.831c2.767,0.311,5.234,0.576,7.699,0.868
			c18.258,2.166,36.521,3.211,54.832,0.537C965.274,869.327,972.759,866.117,979.082,860.271z"/>
		<path fill-rule="evenodd" clip-rule="evenodd" d="M760.45,818.7c-0.894,13.728-1.771,27.215-2.657,40.827
			c-28.303-0.956-55.53,1.493-81.754,12.7c4.638-4.894,9.125-9.94,13.942-14.65c12.898-12.609,26.757-23.966,43.069-32.004
			C742.686,820.825,752.625,818.255,760.45,818.7z M757.991,821.117c-18.256-0.65-63.522,27.847-72.873,45.678
			c22.84-8.309,46.456-10.243,70.592-9.672C756.484,844.898,757.232,833.104,757.991,821.117z"/>
		<path fill-rule="evenodd" clip-rule="evenodd" fill="#FFFFFF" d="M897.441,895.594c-18.922-2.245-37.874-4.274-56.758-6.802
			c-15.464-2.07-30.813-4.842-45.438-10.656c-11.448-4.553-22.121-10.377-31.615-18.3c-1.792-1.495-2.542-3.023-2.352-5.429
			c0.845-10.705,1.399-21.434,2.319-32.132c0.12-1.392,1.483-3.056,2.736-3.913c13.763-9.432,28.691-16.719,44.229-22.603
			c13.515-5.117,27.354-9.376,41.057-13.993c1.153-0.389,2.361-0.616,4.392-1.137c-10.29,13.712-20.07,26.746-30.245,40.305
			c42.867,7.838,85.13,15.565,127.393,23.293c0.031,0.218,0.063,0.436,0.094,0.653c-27.712,9.814-55.424,19.629-84.147,29.804
			c9.968,6.925,19.237,13.365,28.508,19.806C897.556,894.858,897.499,895.227,897.441,895.594z M787.241,840.471
			c8.868-0.264,17.194-1.957,24.361-7.435c2.389-1.826,4.883-3.929,4.277-7.369c-0.622-3.532-3.819-4.437-6.706-5.162
			c-8.14-2.047-16.216-1.605-23.678,2.333c-3.324,1.755-6.507,4.286-8.897,7.174c-3.037,3.671-1.552,7.587,2.984,9.044
			C782.033,839.844,784.682,840.02,787.241,840.471z M806.446,804.85c-2.048-1.296-14.574,6.102-18.85,10.804
			C789.397,816.762,797.64,812.065,806.446,804.85z"/>
		<path fill-rule="evenodd" clip-rule="evenodd" fill="#FFFFFF" d="M997.132,815.825c-19.583,3.469-39.372,6.687-59.023,10.598
			c-7.86,1.564-15.354,4.901-23.146,6.925c-2.689,0.698-5.83,0.172-8.674-0.321c-12.441-2.156-24.849-4.506-37.269-6.785
			c-0.128-0.421-0.257-0.843-0.385-1.265c6.582-3.063,13.19-6.07,19.741-9.197c15.016-7.169,31.265-6.546,47.26-7.624
			c19.079-1.285,37.432,3.478,55.987,6.565C993.57,815.046,995.495,815.494,997.132,815.825z"/>
		<path fill-rule="evenodd" clip-rule="evenodd" fill="#FFFFFF" d="M929.015,799.774c-9.088,2.839-18.235,5.501-27.249,8.559
			c-12.461,4.227-25.093,8.143-35.801,16.288c-0.718,0.545-2.053,0.613-3.02,0.444c-10.636-1.859-21.255-3.81-32.55-5.856
			c3.18-3.812,4.655-8.404,9.922-10.094c16.619-5.333,33.68-8.023,51.032-8.928c11.331-0.591,22.688-0.693,34.033-1.006
			c1.19-0.033,2.383-0.004,3.574-0.004C928.977,799.375,928.995,799.574,929.015,799.774z"/>
		<path fill-rule="evenodd" clip-rule="evenodd" fill="#FFFFFF" d="M945.888,883.479c8.276-4.729,16.827-9.65,25.431-14.478
			c0.899-0.504,2.146-0.726,3.177-0.608c17.658,2.012,35.166,0.135,52.657-1.997c7.785-0.949,15.539-2.162,23.308-3.255
			c0.114,0.294,0.229,0.587,0.345,0.88c-9.686,4.154-19.327,8.415-29.067,12.437c-13.521,5.584-27.821,6.709-42.239,6.912
			c-10.743,0.151-21.487,0.196-32.231,0.269C946.591,883.644,945.914,883.481,945.888,883.479z"/>
		<path fill-rule="evenodd" clip-rule="evenodd" fill="#FFFFFF" d="M875.151,875.789c7.611-4.642,15.349-4.895,23.603-3.729
			c19.803,2.796,39.692,3.876,59.602,0.747c0.231-0.037,0.485,0.067,1.955,0.298c-5.043,2.37-9.089,4.519-13.315,6.213
			c-15.652,6.272-31.951,9.571-48.807,9.876c-2.062,0.038-4.427-0.661-6.164-1.776C886.29,883.736,880.778,879.706,875.151,875.789z
			"/>
		<path fill-rule="evenodd" clip-rule="evenodd" fill="#FFFFFF" d="M1025.318,841.423c-9.93-0.916-19.848-1.995-29.793-2.708
			c-16.311-1.171-32.71-3.098-48.957-0.345c-9.84,1.668-18.582-2.318-27.921-2.842c-0.058-0.41-0.115-0.821-0.173-1.231
			c8.06-2.165,16.223-4.005,24.156-6.562c15.967-5.144,31.561-2.613,47.056,1.79c11.966,3.4,23.802,7.251,35.696,10.902
			C1025.361,840.76,1025.34,841.092,1025.318,841.423z"/>
		<path fill-rule="evenodd" clip-rule="evenodd" fill="#FFFFFF" d="M979.082,860.271c-6.323,5.847-13.808,9.057-22.243,10.288
			c-18.312,2.674-36.574,1.629-54.832-0.537c-2.465-0.292-4.933-0.558-7.699-0.868c5.014-3.458,18.429-7.362,23.924-6.831
			C938.58,864.288,958.849,864.384,979.082,860.271z"/>
		<path fill-rule="evenodd" clip-rule="evenodd" fill="#FFFFFF" d="M757.991,821.117c-0.759,11.987-1.507,23.781-2.281,36.006
			c-24.136-0.571-47.752,1.363-70.592,9.672C694.469,848.964,739.735,820.467,757.991,821.117z"/>
		<path fill-rule="evenodd" clip-rule="evenodd" d="M787.241,840.471c-2.56-0.452-5.208-0.627-7.659-1.415
			c-4.536-1.457-6.021-5.374-2.984-9.044c2.391-2.888,5.573-5.419,8.897-7.174c7.462-3.938,15.538-4.38,23.678-2.333
			c2.886,0.726,6.083,1.63,6.706,5.162c0.606,3.44-1.888,5.543-4.277,7.369C804.435,838.515,796.109,840.208,787.241,840.471z
			 M789.035,838.113c8.233-0.38,15.862-2.376,22.231-7.794c3.748-3.188,3.298-5.919-1.469-7.071c-4.29-1.037-8.89-1.596-13.27-1.267
			c-6.731,0.506-12.855,3.121-17.426,8.405c-2.779,3.212-1.968,5.873,2.153,6.855C783.774,837.841,786.437,837.843,789.035,838.113z
			"/>
		<path fill-rule="evenodd" clip-rule="evenodd" d="M806.446,804.85c-8.807,7.215-17.049,11.912-18.85,10.804
			C791.872,810.952,804.398,803.554,806.446,804.85z"/>
		<path fill-rule="evenodd" clip-rule="evenodd" fill="#FFFFFF" d="M789.035,838.113c-2.599-0.27-5.261-0.272-7.781-0.872
			c-4.122-0.982-4.932-3.643-2.153-6.855c4.571-5.284,10.695-7.899,17.426-8.405c4.38-0.329,8.98,0.23,13.27,1.267
			c4.767,1.152,5.217,3.884,1.469,7.071C804.897,835.736,797.269,837.732,789.035,838.113z M800.323,828.702
			c-2.251-1.555-3.408-2.967-4.56-2.963c-1.003,0.004-2.896,1.732-2.794,2.478c0.165,1.199,1.515,2.888,2.619,3.112
			C796.61,831.537,797.968,830.095,800.323,828.702z"/>
		<path fill-rule="evenodd" clip-rule="evenodd" d="M800.323,828.702c-2.355,1.393-3.713,2.835-4.734,2.627
			c-1.104-0.225-2.454-1.913-2.619-3.112c-0.103-0.745,1.791-2.474,2.794-2.478C796.915,825.735,798.072,827.147,800.323,828.702z"
			/>
	</g>
</g>
</svg>
