<?xml version="1.0" encoding="utf-8"?>
<!-- Generator: Adobe Illustrator 16.0.0, SVG Export Plug-In . SVG Version: 6.00 Build 0)  -->
<!DOCTYPE svg PUBLIC "-//W3C//DTD SVG 1.1//EN" "http://www.w3.org/Graphics/SVG/1.1/DTD/svg11.dtd">
<svg version="1.1" id="Calque_1" xmlns="http://www.w3.org/2000/svg" xmlns:xlink="http://www.w3.org/1999/xlink" x="0px" y="0px"
	 width="673.182px" height="232.839px" viewBox="0 0 673.182 232.839" enable-background="new 0 0 673.182 232.839"
	 xml:space="preserve">
<g>
	<path fill-rule="evenodd" clip-rule="evenodd" fill="none" d="M39.338,86.309c-0.281-0.158-0.563-0.317-0.844-0.476
		c-4.451,6.812-9.099,13.506-13.316,20.461c-10.26,16.918-19.713,34.223-23.876,53.854c-3.988,18.807,0.963,29.784,18.017,38.703
		c6.383,3.339,13.062,6.247,19.859,8.634c29.793,10.459,60.701,16.271,91.757,21.361c8.963,1.469,17.971,2.669,26.958,3.992
		c-0.517-1.318-1.214-1.54-1.925-1.714c-16.131-3.911-32.405-7.335-48.337-11.938c-7.749-2.238-14.976-6.464-22.178-10.277
		c-1.631-0.863-3.034-3.817-2.919-5.71c0.072-1.184,3.071-2.496,4.964-3.17c1.79-0.636,3.858-0.762,5.788-0.686
		c12.505,0.484,25.068,0.48,37.497,1.758c44.545,4.583,89.037,9.663,133.564,14.41c6.404,0.682,12.893,0.659,19.346,0.786
		c6.373,0.125,12.75,0.027,19.125,0.027c-39.92-6.682-79.741-12.496-119.383-19.355c-32.147-5.562-64.12-12.351-94.544-24.572
		c-8.242-3.313-16.194-7.841-23.451-12.982c-7.854-5.563-8.534-12.168-2.878-19.766c4.417-5.934,9.213-11.718,14.57-16.802
		c32.091-30.456,68.264-55.519,105.999-78.295c22.019-13.29,44.83-25.267,67.285-37.834c-18.407,7.616-36.912,15.265-54.836,24.095
		c-18.039,8.885-35.895,18.289-53.102,28.675c-17.383,10.493-34.324,21.86-50.623,33.97c-15.949,11.85-30.844,25.122-47.089,38.499
		c2.413-3.796,3.917-7.053,6.208-9.6c6.92-7.696,13.345-16.133,21.392-22.467c32.722-25.759,65.978-50.839,99.036-76.171
		c1.874-1.437,3.734-2.888,5.601-4.33c-0.309-0.404-0.616-0.807-0.925-1.21c-9.931,6.753-19.878,13.481-29.788,20.266
		c-33.403,22.872-66.759,45.815-100.259,68.545c-2.486,1.688-5.968,1.911-8.987,2.815c-0.435-3.166-1.543-6.419-1.151-9.479
		C36.504,95.586,38.138,90.975,39.338,86.309z M414.509,180.389c14.573-2.028,28.477-3.887,42.356-5.926
		c8.456-1.24,16.837-3.634,25.312-3.961c14.645-0.567,29.356,0.584,44.008,0.069c18.151-0.64,36.412-1.214,54.366-3.689
		c22.464-3.098,42.859-13.096,63.147-22.785c9.956-4.754,19.664-10.031,29.483-15.074c-45.507,6.111-90.465,14.257-137.684,11.215
		c7.082-6.094,12.855-11.062,18.628-16.027c-0.277-0.48-0.555-0.959-0.834-1.436c-34.955,10.551-70.5,11.124-106.479,6.41
		c22.365-7.993,44.73-15.989,68.604-24.523c-8.485-1.661-15.435-3.023-22.386-4.386c25.902-3.688,51.691-1.857,77.434,0.513
		c25.77,2.373,51.493,5.223,77.235,7.863c-39.9-14.066-79.42-29.307-121.37-37.408c21.949-2.863,43.898-5.725,65.849-8.587
		c-49.659-9.966-98.903-23.48-150.572-14.947c0.024-0.679,0.048-1.358,0.072-2.037c13.839-3.969,27.679-7.938,41.519-11.907
		c-27.184-3.656-54.136-2.522-81.076-0.881c-26.983,1.643-53.618,5.501-80.984,14.468C333.429,30.838,344.571,15.866,356.38,0
		c-2.543,0.492-3.885,0.613-5.136,1.016c-23.232,7.455-46.709,14.249-69.615,22.606c-27.576,10.062-54.101,22.595-78.283,39.525
		c-1.819,1.273-3.811,3.689-3.976,5.716c-1.429,17.538-2.308,35.122-3.704,52.663c-0.382,4.805,1.031,7.96,4.725,11.005
		c25.333,20.882,54.442,34.167,86.456,39.64c36.757,6.284,73.882,10.45,110.881,15.262c8.932,1.161,18.005,1.236,27.014,1.813
		c0.092-0.433,0.184-0.864,0.275-1.295C421.606,185.494,418.195,183.039,414.509,180.389z M197.945,65.432
		c-12.255-0.697-27.82,3.328-42.909,10.764c-25.546,12.588-47.25,30.374-67.449,50.12c-7.544,7.377-14.572,15.28-21.835,22.943
		c41.069-17.551,83.707-21.386,128.032-19.889C195.171,108.052,196.546,86.93,197.945,65.432z"/>
	<path fill-rule="evenodd" clip-rule="evenodd" d="M39.338,86.309c-1.2,4.666-2.834,9.277-3.444,14.019
		c-0.393,3.061,0.716,6.313,1.151,9.479c3.019-0.904,6.501-1.128,8.987-2.815c33.5-22.729,66.855-45.673,100.259-68.545
		c9.91-6.784,19.857-13.512,29.788-20.266c0.309,0.403,0.616,0.806,0.925,1.21c-1.867,1.442-3.728,2.893-5.601,4.33
		c-33.058,25.332-66.313,50.412-99.036,76.171c-8.046,6.334-14.472,14.771-21.392,22.467c-2.291,2.547-3.795,5.804-6.208,9.6
		c16.245-13.377,31.14-26.648,47.089-38.499c16.298-12.11,33.239-23.477,50.623-33.97c17.207-10.386,35.063-19.79,53.102-28.675
		c17.924-8.83,36.429-16.479,54.836-24.095c-22.455,12.568-45.267,24.544-67.285,37.834c-37.735,22.777-73.908,47.84-105.999,78.295
		c-5.357,5.084-10.153,10.868-14.57,16.802c-5.656,7.598-4.975,14.203,2.878,19.766c7.256,5.142,15.208,9.669,23.451,12.982
		c30.424,12.222,62.396,19.011,94.544,24.572c39.642,6.859,79.463,12.674,119.383,19.355c-6.375,0-12.752,0.098-19.125-0.027
		c-6.453-0.127-12.941-0.104-19.346-0.786c-44.527-4.747-89.02-9.827-133.564-14.41c-12.429-1.277-24.992-1.273-37.497-1.758
		c-1.929-0.076-3.998,0.05-5.788,0.686c-1.894,0.674-4.893,1.986-4.964,3.17c-0.115,1.893,1.288,4.847,2.919,5.71
		c7.202,3.813,14.429,8.039,22.178,10.277c15.932,4.603,32.206,8.026,48.337,11.938c0.71,0.174,1.408,0.396,1.925,1.714
		c-8.987-1.323-17.995-2.523-26.958-3.992c-31.057-5.091-61.964-10.902-91.757-21.361c-6.797-2.387-13.476-5.295-19.859-8.634
		c-17.053-8.919-22.004-19.896-18.017-38.703c4.163-19.632,13.616-36.937,23.876-53.854c4.217-6.955,8.865-13.649,13.316-20.461
		C38.775,85.991,39.057,86.15,39.338,86.309z"/>
	<path fill-rule="evenodd" clip-rule="evenodd" d="M414.509,180.389c3.686,2.65,7.097,5.105,10.508,7.563
		c-0.092,0.431-0.184,0.862-0.275,1.295c-9.009-0.577-18.082-0.652-27.014-1.813c-36.999-4.812-74.124-8.978-110.881-15.262
		c-32.014-5.473-61.123-18.758-86.456-39.64c-3.694-3.045-5.107-6.2-4.725-11.005c1.396-17.541,2.275-35.125,3.704-52.663
		c0.165-2.027,2.156-4.442,3.976-5.716c24.183-16.93,50.707-29.463,78.283-39.525c22.906-8.358,46.383-15.151,69.615-22.606
		c1.251-0.403,2.593-0.524,5.136-1.016c-11.81,15.866-22.951,30.838-35.242,47.353c27.366-8.966,54.001-12.825,80.984-14.468
		c26.94-1.642,53.893-2.775,81.076,0.881c-13.84,3.969-27.68,7.938-41.519,11.907c-0.024,0.679-0.048,1.358-0.072,2.037
		c51.669-8.534,100.913,4.981,150.572,14.947c-21.95,2.862-43.899,5.724-65.849,8.587c41.95,8.101,81.47,23.342,121.37,37.408
		c-25.742-2.641-51.466-5.49-77.235-7.863c-25.742-2.37-51.531-4.2-77.434-0.513c6.951,1.362,13.9,2.725,22.386,4.386
		c-23.874,8.534-46.239,16.53-68.604,24.523c35.979,4.714,71.523,4.141,106.479-6.41c0.279,0.477,0.557,0.955,0.834,1.436
		c-5.772,4.966-11.546,9.934-18.628,16.027c47.219,3.042,92.177-5.104,137.684-11.215c-9.819,5.043-19.527,10.32-29.483,15.074
		c-20.288,9.689-40.684,19.688-63.147,22.785c-17.954,2.476-36.215,3.05-54.366,3.689c-14.651,0.515-29.363-0.637-44.008-0.069
		c-8.475,0.327-16.855,2.721-25.312,3.961C442.986,176.502,429.083,178.36,414.509,180.389z M412.482,185.853
		c0.09-0.575,0.178-1.151,0.269-1.729c-14.519-10.086-29.035-20.172-44.645-31.017c44.983-15.935,88.382-31.305,131.779-46.675
		c-0.048-0.341-0.098-0.682-0.146-1.023c-66.188-12.102-132.372-24.204-199.505-36.478c15.934-21.234,31.251-41.646,47.365-63.12
		c-3.18,0.815-5.071,1.171-6.878,1.78c-21.458,7.23-43.132,13.9-64.297,21.914c-24.333,9.215-47.711,20.627-69.265,35.397
		c-1.962,1.343-4.096,3.948-4.285,6.128c-1.441,16.754-2.309,33.556-3.632,50.32c-0.297,3.767,0.877,6.16,3.683,8.502
		c14.869,12.407,31.583,21.528,49.51,28.658c22.903,9.106,46.94,13.446,71.159,16.688
		C353.168,179.157,382.849,182.337,412.482,185.853z M568.603,60.93c-2.563-0.518-5.578-1.221-8.626-1.727
		c-29.059-4.836-57.8-12.294-87.68-10.282c-25.048,1.688-50.496,0.712-74.012,11.939c-10.259,4.897-20.608,9.607-30.915,14.404
		c0.2,0.661,0.401,1.321,0.602,1.98c19.451,3.569,38.881,7.249,58.365,10.625c4.454,0.772,9.371,1.597,13.584,0.503
		c12.203-3.17,23.938-8.395,36.247-10.845C506.944,71.401,537.934,66.362,568.603,60.93z M461.927,35.793
		c-0.031-0.313-0.06-0.626-0.091-0.938c-1.865,0-3.731-0.044-5.597,0.007c-17.769,0.49-35.554,0.651-53.299,1.576
		c-27.173,1.418-53.893,5.631-79.918,13.982c-8.249,2.647-10.56,9.839-15.539,15.808c17.688,3.206,34.318,6.26,50.975,9.172
		c1.515,0.264,3.604,0.158,4.729-0.696c16.769-12.757,36.551-18.889,56.065-25.508C433.37,44.408,447.695,40.239,461.927,35.793z
		 M488.352,166.879c0.041,0.005,1.101,0.259,2.159,0.249c16.825-0.113,33.652-0.184,50.477-0.42
		c22.58-0.318,44.973-2.08,66.148-10.824c15.254-6.299,30.354-12.971,45.521-19.477c-0.18-0.459-0.36-0.918-0.539-1.379
		c-12.167,1.712-24.311,3.611-36.502,5.098c-27.393,3.338-54.811,6.278-82.464,3.128c-1.615-0.184-3.567,0.163-4.976,0.952
		C514.705,151.767,501.313,159.474,488.352,166.879z M377.575,154.837c8.812,6.135,17.443,12.445,26.423,18.212
		c2.722,1.746,6.426,2.842,9.654,2.782c26.396-0.478,51.921-5.644,76.434-15.467c6.619-2.654,12.955-6.019,20.854-9.73
		c-2.302-0.36-2.699-0.524-3.063-0.466c-31.179,4.899-62.327,3.208-93.34-1.17C401.611,147.171,389.494,147.567,377.575,154.837z
		 M612.745,101.019c0.034-0.52,0.067-1.039,0.101-1.561c-18.627-5.716-37.163-11.748-55.902-17.072
		c-24.266-6.895-48.688-10.857-73.692-2.802c-12.424,4.003-25.208,6.886-37.83,10.275c0.091,0.643,0.182,1.286,0.271,1.928
		c14.625,0.82,28.316,7.063,43.727,4.451c25.444-4.312,51.127-1.294,76.67,0.54C581.663,97.894,597.195,99.585,612.745,101.019z
		 M540.335,130.534c-31.687,6.441-63.428,6.291-95.295,3.213c-8.605-0.832-29.615,5.282-37.467,10.697
		c4.333,0.486,8.197,0.902,12.059,1.36c28.592,3.392,57.191,5.028,85.869,0.841C518.712,144.718,530.433,139.69,540.335,130.534z"/>
	<path fill-rule="evenodd" clip-rule="evenodd" d="M197.945,65.432c-1.399,21.498-2.774,42.62-4.161,63.938
		c-44.325-1.497-86.963,2.338-128.032,19.889c7.263-7.663,14.291-15.566,21.835-22.943c20.199-19.746,41.902-37.531,67.449-50.12
		C170.125,68.76,185.689,64.735,197.945,65.432z M194.094,69.217c-28.59-1.018-99.48,43.61-114.124,71.534
		c35.769-13.012,72.753-16.041,110.551-15.146C191.734,106.459,192.905,87.99,194.094,69.217z"/>
	<path fill-rule="evenodd" clip-rule="evenodd" fill="#FFFF00" d="M412.482,185.853c-29.633-3.516-59.313-6.695-88.887-10.652
		c-24.219-3.242-48.256-7.582-71.159-16.688c-17.927-7.13-34.642-16.251-49.51-28.658c-2.806-2.342-3.98-4.735-3.683-8.502
		c1.324-16.765,2.191-33.566,3.632-50.32c0.188-2.18,2.323-4.785,4.285-6.128c21.554-14.77,44.932-26.182,69.265-35.397
		c21.165-8.014,42.839-14.684,64.297-21.914c1.807-0.608,3.698-0.965,6.878-1.78c-16.114,21.473-31.432,41.886-47.365,63.12
		c67.133,12.274,133.317,24.376,199.505,36.478c0.048,0.342,0.098,0.683,0.146,1.023c-43.397,15.37-86.796,30.74-131.779,46.675
		c15.609,10.845,30.126,20.931,44.645,31.017C412.66,184.701,412.572,185.277,412.482,185.853z M239.902,99.526
		c13.888-0.412,26.927-3.063,38.149-11.643c3.742-2.86,7.648-6.153,6.699-11.541c-0.976-5.532-5.982-6.948-10.502-8.084
		c-12.748-3.206-25.395-2.513-37.081,3.654c-5.206,2.749-10.19,6.712-13.935,11.235c-4.757,5.749-2.431,11.882,4.674,14.164
		C231.746,98.545,235.893,98.819,239.902,99.526z M269.978,43.741c-3.207-2.029-22.824,9.556-29.521,16.92
		C243.279,62.396,256.186,55.041,269.978,43.741z"/>
	<path fill-rule="evenodd" clip-rule="evenodd" fill="#FF0000" d="M568.603,60.93c-30.669,5.433-61.659,10.472-92.435,16.597
		c-12.31,2.45-24.044,7.675-36.247,10.845c-4.213,1.094-9.13,0.27-13.584-0.503c-19.484-3.376-38.914-7.056-58.365-10.625
		c-0.2-0.66-0.401-1.32-0.602-1.98c10.307-4.796,20.656-9.507,30.915-14.404c23.516-11.227,48.964-10.251,74.012-11.939
		c29.88-2.012,58.621,5.446,87.68,10.282C563.025,59.709,566.041,60.412,568.603,60.93z"/>
	<path fill-rule="evenodd" clip-rule="evenodd" fill="#FF0000" d="M461.927,35.793c-14.232,4.445-28.558,8.615-42.674,13.403
		c-19.515,6.619-39.297,12.751-56.065,25.508c-1.125,0.854-3.215,0.96-4.729,0.696c-16.656-2.912-33.286-5.966-50.975-9.172
		c4.979-5.969,7.29-13.161,15.539-15.808c26.025-8.351,52.745-12.564,79.918-13.982c17.745-0.925,35.53-1.086,53.299-1.576
		c1.865-0.051,3.731-0.007,5.597-0.007C461.868,35.167,461.896,35.48,461.927,35.793z"/>
	<path fill-rule="evenodd" clip-rule="evenodd" fill="#FF0000" d="M488.352,166.879c12.961-7.405,26.353-15.112,39.825-22.673
		c1.408-0.789,3.36-1.136,4.976-0.952c27.653,3.15,55.071,0.21,82.464-3.128c12.191-1.486,24.335-3.386,36.502-5.098
		c0.179,0.461,0.359,0.92,0.539,1.379c-15.168,6.506-30.268,13.178-45.521,19.477c-21.176,8.744-43.568,10.506-66.148,10.824
		c-16.824,0.236-33.651,0.307-50.477,0.42C489.453,167.138,488.393,166.884,488.352,166.879z"/>
	<path fill-rule="evenodd" clip-rule="evenodd" fill="#FF0000" d="M377.575,154.837c11.919-7.27,24.036-7.666,36.962-5.839
		c31.013,4.378,62.161,6.069,93.34,1.17c0.363-0.059,0.761,0.105,3.063,0.466c-7.898,3.712-14.234,7.076-20.854,9.73
		c-24.513,9.823-50.037,14.989-76.434,15.467c-3.229,0.06-6.933-1.036-9.654-2.782C395.018,167.282,386.386,160.972,377.575,154.837
		z"/>
	<path fill-rule="evenodd" clip-rule="evenodd" fill="#FF0000" d="M612.745,101.019c-15.55-1.434-31.082-3.125-46.657-4.241
		c-25.543-1.833-51.226-4.851-76.67-0.54c-15.41,2.612-29.102-3.631-43.727-4.451c-0.089-0.643-0.18-1.285-0.271-1.928
		c12.622-3.389,25.406-6.272,37.83-10.275c25.005-8.055,49.427-4.093,73.692,2.802c18.739,5.325,37.275,11.356,55.902,17.072
		C612.812,99.979,612.779,100.499,612.745,101.019z"/>
	<path fill-rule="evenodd" clip-rule="evenodd" fill="#FF0000" d="M540.335,130.534c-9.902,9.156-21.623,14.184-34.834,16.111
		c-28.678,4.188-57.277,2.551-85.869-0.841c-3.861-0.458-7.726-0.874-12.059-1.36c7.852-5.415,28.861-11.529,37.467-10.697
		C476.908,136.825,508.649,136.976,540.335,130.534z"/>
	<path fill-rule="evenodd" clip-rule="evenodd" fill="#F7931E" d="M194.094,69.217c-1.189,18.773-2.36,37.242-3.573,56.387
		c-37.798-0.895-74.782,2.135-110.551,15.146C94.614,112.827,165.504,68.2,194.094,69.217z"/>
	<path fill-rule="evenodd" clip-rule="evenodd" d="M239.902,99.526c-4.009-0.707-8.156-0.981-11.995-2.215
		c-7.104-2.282-9.431-8.415-4.674-14.164c3.744-4.523,8.729-8.487,13.935-11.235c11.687-6.167,24.333-6.86,37.081-3.654
		c4.52,1.136,9.526,2.553,10.502,8.084c0.949,5.388-2.957,8.681-6.699,11.541C266.829,96.463,253.79,99.114,239.902,99.526z
		 M242.71,95.833c12.895-0.596,24.842-3.722,34.815-12.207c5.869-4.992,5.165-9.271-2.302-11.074
		c-6.717-1.623-13.921-2.499-20.78-1.983c-10.542,0.792-20.133,4.888-27.29,13.163c-4.352,5.031-3.083,9.198,3.371,10.736
		C234.472,95.407,238.641,95.411,242.71,95.833z"/>
	<path fill-rule="evenodd" clip-rule="evenodd" d="M269.978,43.741c-13.792,11.3-26.699,18.655-29.521,16.92
		C247.154,53.297,266.771,41.712,269.978,43.741z"/>
	<radialGradient id="SVGID_1_" cx="253.02" cy="83.1279" r="22.0124" gradientUnits="userSpaceOnUse">
		<stop  offset="0" style="stop-color:#3DDEED;stop-opacity:0"/>
		<stop  offset="1" style="stop-color:#3DDEED"/>
	</radialGradient>
	<path fill-rule="evenodd" clip-rule="evenodd" fill="url(#SVGID_1_)" d="M242.71,95.833c-4.069-0.423-8.238-0.426-12.186-1.365
		c-6.454-1.538-7.723-5.705-3.371-10.736c7.157-8.275,16.748-12.371,27.29-13.163c6.859-0.516,14.063,0.36,20.78,1.983
		c7.467,1.804,8.171,6.083,2.302,11.074C267.552,92.112,255.605,95.238,242.71,95.833z M260.388,81.096
		c-3.525-2.435-5.337-4.647-7.141-4.64c-1.57,0.006-4.535,2.713-4.374,3.88c0.257,1.878,2.371,4.522,4.101,4.874
		C254.574,85.536,256.701,83.277,260.388,81.096z"/>
	<path fill-rule="evenodd" clip-rule="evenodd" d="M260.388,81.096c-3.688,2.181-5.814,4.44-7.414,4.114
		c-1.729-0.352-3.844-2.996-4.101-4.874c-0.161-1.167,2.804-3.874,4.374-3.88C255.051,76.449,256.863,78.661,260.388,81.096z"/>
</g>
</svg>
