<?xml version="1.0" encoding="utf-8"?>
<!-- Generator: Adobe Illustrator 16.0.0, SVG Export Plug-In . SVG Version: 6.00 Build 0)  -->
<!DOCTYPE svg PUBLIC "-//W3C//DTD SVG 1.1//EN" "http://www.w3.org/Graphics/SVG/1.1/DTD/svg11.dtd">
<svg version="1.1" xmlns="http://www.w3.org/2000/svg" xmlns:xlink="http://www.w3.org/1999/xlink" x="0px" y="0px"
	 width="2273.286px" height="2273.286px" viewBox="0 0 2273.286 2273.286" enable-background="new 0 0 2273.286 2273.286"
	 xml:space="preserve">
<g id="Calque_2">
	<circle fill="#FFFFFF" stroke="#000000" stroke-width="5" stroke-miterlimit="10" cx="1133.861" cy="1141.567" r="1131.719"/>
	<g>
		<path stroke="#000000" stroke-miterlimit="10" d="M566.009,1707.42c0-309.688,248.781-561.266,557.391-565.797
			c-308.688-4.531-557.532-256.171-557.532-565.938c0-306.55,243.703-556.168,547.935-565.712C497.034,19.555,0,522.501,0,1141.552
			c0,625.039,506.695,1131.734,1131.734,1131.734c0.023,0,0.047-0.001,0.07-0.001
			C819.318,2273.248,566.009,2019.916,566.009,1707.42z"/>
		<path fill="#FFFFFF" d="M1697.882,575.685c0,309.767-248.845,561.407-557.533,565.938
			c308.612,4.531,557.392,256.109,557.392,565.797c0,310.056-249.366,561.867-558.485,565.818
			c621.575-4.048,1124.214-509.158,1124.214-1131.687c0-618.816-496.66-1121.615-1113.104-1131.566
			C1454.401,19.746,1697.882,269.275,1697.882,575.685z"/>
		<path fill="#FFFFFF" stroke="#000000" stroke-miterlimit="10" d="M1150.364,9.985c-5.481-0.176-10.982-0.276-16.503-0.295v0.14
			C1139.372,9.841,1144.872,9.897,1150.364,9.985z"/>
		<path fill="#FFFFFF" stroke="#000000" stroke-miterlimit="10" d="M1133.861,9.831V9.69c-0.663-0.002-1.324-0.013-1.987-0.013
			c-6.048,0-12.07,0.106-18.071,0.294c5.967-0.093,11.941-0.155,17.932-0.155C1132.444,9.817,1133.151,9.829,1133.861,9.831z"/>
		<path fill="#FFFFFF" d="M565.868,575.685c0,309.767,248.844,561.407,557.532,565.938c2.82-0.042,5.645-0.068,8.475-0.068
			c0.663,0,1.324,0.01,1.987,0.013V706.509c-0.709,0.011-1.416,0.027-2.127,0.027c-77.102,0-139.605-62.503-139.605-139.605
			s62.504-139.605,139.605-139.605c0.711,0,1.418,0.016,2.127,0.027V9.831c-0.71-0.001-1.417-0.014-2.127-0.014
			c-5.99,0-11.965,0.063-17.932,0.155C809.571,19.516,565.868,269.135,565.868,575.685z"/>
		<path fill="#FFFFFF" d="M1133.861,427.352c76.119,1.138,137.479,63.188,137.479,139.579s-61.359,138.44-137.479,139.579v435.058
			c2.165,0.007,4.328,0.024,6.487,0.056c308.688-4.531,557.533-256.171,557.533-565.938c0-306.409-243.48-555.939-547.518-565.699
			c-5.492-0.088-10.992-0.145-16.503-0.155V427.352z"/>
		<path stroke="#000000" stroke-miterlimit="10" d="M1133.861,2273.272L1133.861,2273.272c1.799-0.005,3.599-0.011,5.394-0.034
			C1137.457,2273.25,1135.661,2273.27,1133.861,2273.272z"/>
		<path stroke="#000000" stroke-miterlimit="10" d="M1131.805,2273.285c0.022,0,0.046,0.001,0.069,0.001
			c0.663,0,1.324-0.011,1.987-0.013v-0.001C1133.175,2273.273,1132.491,2273.285,1131.805,2273.285z"/>
		<path stroke="#000000" stroke-miterlimit="10" d="M1697.74,1707.42c0-309.688-248.779-561.266-557.392-565.797
			c-2.159,0.032-4.322,0.048-6.487,0.056v424.009c78.276,0,141.732,63.456,141.732,141.732c0,78.277-63.456,141.732-141.732,141.732
			v424.12c1.8-0.003,3.596-0.022,5.394-0.034C1448.374,2269.287,1697.74,2017.476,1697.74,1707.42z"/>
		<g>
			<path d="M1133.861,1849.152c-78.276,0-141.732-63.455-141.732-141.732c0-78.276,63.456-141.732,141.732-141.732v-424.009
				c-0.663,0.002-1.324,0.013-1.987,0.013c-2.83,0-5.654-0.027-8.475-0.068c-308.61,4.531-557.391,256.109-557.391,565.797
				c0,312.496,253.31,565.828,565.796,565.865c0.687,0,1.37-0.012,2.057-0.013V1849.152z"/>
			<path d="M1133.172,1849.635c-9.039-0.052-18.171-0.943-27.062-2.709c-9.132-1.808-18.085-4.52-26.685-8.085
				c-17.205-7.121-32.971-17.682-46.138-30.848c-13.166-13.167-23.727-28.932-30.848-46.138
				c-7.146-17.197-10.805-35.816-10.812-54.436c0.011-9.283,0.917-18.634,2.727-27.751c1.808-9.132,4.52-18.085,8.085-26.685
				c7.121-17.205,17.682-32.97,30.848-46.138c13.167-13.166,28.933-23.726,46.138-30.848c17.197-7.146,35.816-10.805,54.436-10.812
				l-0.5,0.5c-3.559-8.834-6.335-17.667-8.836-26.501c-2.553-8.833-4.722-17.667-6.676-26.5
				c-3.915-17.667-6.831-35.334-9.118-53.001c-4.49-35.334-6.19-70.668-5.805-106.002c0.174-17.667,0.811-35.334,1.964-53.001
				c0.582-8.833,1.294-17.667,2.14-26.5c0.845-8.833,1.874-17.667,2.988-26.5c1.159-8.833,2.46-17.667,3.92-26.5
				c1.481-8.834,3.136-17.667,4.991-26.501c1.872-8.833,3.893-17.667,6.285-26.5c2.352-8.833,4.897-17.667,8.146-26.5l0.502,0.5
				c-2.322,0.089-4.65,0.1-6.967,0.147l-3.481,0.059l-3.45,0.181l-6.953,0.346c-2.319,0.107-4.638,0.223-6.942,0.418l-6.922,0.518
				c-2.306,0.175-4.611,0.325-6.915,0.581c-4.604,0.485-9.217,0.867-13.81,1.436c-18.388,2.092-36.658,5.064-54.718,8.94
				c-36.118,7.748-71.436,18.926-105.269,33.455c-33.847,14.492-66.214,32.296-96.545,53.002
				c-15.153,10.372-29.821,21.437-43.902,33.195c-14.084,11.754-27.568,24.21-40.456,37.24
				c-12.878,13.041-25.113,26.706-36.647,40.931c-11.542,14.217-22.416,28.971-32.52,44.229
				c-20.201,30.52-37.467,62.962-51.329,96.794c-13.876,33.821-24.489,68.973-31.479,104.837
				c-3.516,17.927-6.181,36.021-7.937,54.206c-0.379,4.552-0.827,9.098-1.153,13.653c-0.27,4.56-0.589,9.116-0.821,13.678
				l-0.489,13.694l-0.16,13.59l0.164,13.92l0.489,13.602c0.22,4.541,0.552,9.112,0.821,13.667c0.31,4.558,0.776,9.102,1.155,13.653
				c1.756,18.185,4.422,36.278,7.939,54.205c6.992,35.863,17.606,71.014,31.486,104.832c13.867,33.829,31.139,66.265,51.316,96.799
				c20.219,30.508,43.386,59.1,69.146,85.18c12.89,13.029,26.376,25.483,40.463,37.235c14.083,11.757,28.754,22.818,43.909,33.188
				c30.336,20.699,62.706,38.496,96.555,52.981c33.834,14.522,69.15,25.695,105.267,33.445c18.059,3.878,36.327,6.853,54.714,8.952
				c18.384,2.167,36.889,3.342,55.438,3.805l-0.5,0.5c-3.167-8.836-5.651-17.672-7.965-26.508
				c-2.353-8.836-4.33-17.672-6.178-26.507c-1.831-8.836-3.474-17.672-4.923-26.508c-1.446-8.836-2.784-17.672-3.904-26.508
				c-0.608-4.418-1.079-8.836-1.624-13.254c-0.465-4.418-0.972-8.836-1.396-13.254c-0.865-8.835-1.6-17.671-2.198-26.507
				c-1.204-17.672-1.915-35.344-2.179-53.015c-0.268-17.672-0.11-35.344,0.766-53.016c0.422-8.836,1.011-17.672,1.77-26.508
				c0.756-8.836,1.677-17.671,2.813-26.507c1.126-8.836,2.394-17.672,3.931-26.508c1.522-8.836,3.248-17.672,5.228-26.508
				c1.994-8.835,4.182-17.671,6.791-26.507l1.977-6.627l2.154-6.627C1129.897,1858.147,1131.374,1853.894,1133.172,1849.635z
				 M1134.361,1849.152c1.891,4.418,3.409,8.836,4.938,13.254l2.154,6.627l1.977,6.627c2.609,8.836,4.797,17.672,6.791,26.507
				c1.979,8.836,3.705,17.672,5.228,26.508c1.537,8.836,2.805,17.672,3.931,26.508c1.137,8.836,2.058,17.671,2.813,26.507
				c0.759,8.836,1.348,17.672,1.77,26.508c0.876,17.672,1.033,35.344,0.766,53.016c-0.264,17.671-0.975,35.343-2.179,53.015
				c-0.599,8.836-1.333,17.672-2.198,26.507c-0.424,4.418-0.931,8.836-1.396,13.254c-0.545,4.418-1.016,8.836-1.624,13.254
				c-1.12,8.836-2.458,17.672-3.904,26.508c-1.449,8.836-3.092,17.672-4.923,26.508c-1.848,8.835-3.825,17.671-6.178,26.507
				c-2.313,8.836-4.798,17.672-7.965,26.508l-0.176,0.491l-0.324,0.009c-18.574,0.521-37.195,0.063-55.771-1.26
				c-18.571-1.38-37.09-3.693-55.469-6.907c-36.761-6.425-72.909-16.674-107.728-30.412c-34.812-13.763-68.285-31.04-99.736-51.504
				c-15.739-10.211-30.953-21.247-45.602-32.995c-14.646-11.752-28.743-24.209-42.155-37.377
				c-13.42-13.16-26.213-26.972-38.284-41.399c-12.067-14.43-23.401-29.479-33.991-45.04c-21.2-31.112-39.23-64.399-53.853-99.131
				c-14.622-34.737-25.683-70.976-33.127-107.938c-3.706-18.486-6.46-37.161-8.316-55.923c-0.401-4.695-0.888-9.385-1.217-14.087
				c-0.289-4.708-0.637-9.395-0.874-14.121l-0.533-14.222l-0.188-13.92l0.189-14.251l0.53-14.128
				c0.247-4.706,0.583-9.408,0.873-14.112c0.345-4.7,0.813-9.392,1.215-14.087c1.855-18.762,4.608-37.438,8.313-55.924
				c7.443-36.964,18.502-73.204,33.12-107.942c14.616-34.735,32.642-68.029,53.864-99.127
				c10.597-15.556,21.938-30.599,34.012-45.023c12.081-14.417,24.863-28.237,38.283-41.396
				c13.41-13.169,27.504-25.628,42.147-37.383c14.647-11.75,29.858-22.789,45.595-33.002c31.446-20.47,64.917-37.755,99.726-51.524
				c34.817-13.745,70.967-23.999,107.729-30.421c18.38-3.213,36.9-5.523,55.473-6.896c4.641-0.365,9.296-0.544,13.939-0.824
				c2.32-0.153,4.651-0.202,6.979-0.274l6.98-0.21c2.327-0.092,4.648-0.105,6.968-0.109l6.963-0.033l3.508-0.007l3.479,0.115
				c2.322,0.069,4.635,0.175,6.953,0.202l0.319,0.004l0.183,0.496c3.249,8.833,5.795,17.667,8.146,26.5
				c2.393,8.833,4.413,17.667,6.285,26.5c1.855,8.833,3.51,17.667,4.991,26.501c1.46,8.833,2.761,17.667,3.92,26.5
				c1.114,8.833,2.144,17.667,2.988,26.5c0.846,8.833,1.558,17.667,2.14,26.5c1.153,17.667,1.79,35.334,1.964,53.001
				c0.386,35.334-1.314,70.668-5.805,106.002c-2.287,17.667-5.203,35.334-9.118,53.001c-1.954,8.833-4.123,17.667-6.676,26.5
				c-2.501,8.834-5.277,17.667-8.836,26.501l-0.201,0.5h-0.299c-18.491,0.007-36.977,3.64-54.053,10.735
				c-17.084,7.071-32.738,17.557-45.813,30.631c-13.074,13.076-23.56,28.73-30.631,45.813c-3.54,8.539-6.232,17.429-8.028,26.496
				c-1.797,9.082-2.694,18.285-2.707,27.557c0.007,18.491,3.64,36.977,10.735,54.053c7.071,17.084,17.557,32.738,30.631,45.813
				c13.075,13.074,28.73,23.56,45.813,30.631c8.539,3.54,17.428,6.232,26.496,8.028c9.088,1.798,18.272,2.694,27.569,2.707h0.273
				L1134.361,1849.152z"/>
		</g>
		<path stroke="#000000" stroke-miterlimit="10" d="M1133.861,1141.567v0.111c2.165-0.007,4.328-0.024,6.487-0.056
			C1138.189,1141.591,1136.026,1141.575,1133.861,1141.567z"/>
		<path stroke="#000000" stroke-miterlimit="10" d="M1131.874,1141.555c-2.83,0-5.654,0.027-8.475,0.068
			c2.82,0.042,5.645,0.068,8.475,0.068c0.663,0,1.324-0.01,1.987-0.013v-0.111
			C1133.198,1141.565,1132.537,1141.555,1131.874,1141.555z"/>
		<path d="M1131.734,427.325c-77.102,0-139.605,62.503-139.605,139.605s62.504,139.605,139.605,139.605
			c0.711,0,1.418-0.016,2.127-0.027V427.352C1133.152,427.341,1132.445,427.325,1131.734,427.325z"/>
		<path d="M1271.34,566.931c0-76.391-61.359-138.44-137.479-139.579v279.157C1209.98,705.371,1271.34,643.322,1271.34,566.931z"/>
	</g>
	<circle cx="1133.861" cy="566.931" r="141.732"/>
</g>
<g id="Repères" display="none">
</g>
</svg>
